# File created by Blade
# Date/Time:  Mon Nov 18 17:26:10 2013
# Frame Rate: 100.000 fps
#------------------------------------------------------
:FULLY-SPECIFIED
:DEGREES
66
root -42.242038 -2.751030 41.876290 6.884421 -0.629818 23.641075
Spine 18.739018 -0.002382 0.604903
Spine1 6.776391 0.186122 2.040635
Spine2 -22.781405 -0.404472 0.214213
NeckDummy -0.048672 0.414394 0.980358 13.567908 -0.973490 0.659615
Neck 5.638066 -13.556925 43.864804
Head -0.078764 -0.092959 -0.152933 0.445498 -1.843508 -0.244942
LeftShoulderDummy -0.069207 0.428957 1.001477 13.579074 -1.053493 0.795954
LeftShoulder 5.834406 -8.478733 18.134520
LeftArm 11.448581 38.154972 21.430080
LeftForeArm 50.938886
LeftForeArmRoll 17.305053
LeftHand -33.374699 -19.690980 5.069560
LeftHandThumb1 15.944924 3.074929
LeftHandIndex1 -1.691426 40.722213
LeftHandPinky1 -0.004577 61.089637
RightShoulderDummy -0.040654 0.401200 0.949900 13.569212 0.962716 -0.626450
RightShoulder 9.325361 3.215006 10.160797
RightArm -1.414645 60.094151 27.705619
RightForeArm 93.793450
RightForeArmRoll 19.042487
RightHand -46.243558 -27.134281 7.784870
RightHandThumb1 16.190614 8.291402
RightHandIndex1 0.996764 39.242457
RightHandPinky1 9.240406 67.471448
LeftUpLeg -4.493608 21.894118 -42.513938
LeftLeg 65.227963
LeftFoot 0.197759 -0.804007 -1.843533 -21.473776 0.121068 -2.797263
LeftToeBase -8.917842
RightUpLeg -7.696561 14.817507 -30.454695
RightLeg 51.271648
RightFoot -0.510974 0.767543 0.791919 -16.327510 12.606700 -21.508874
RightToeBase -0.529818
67
root -42.332586 -2.778892 41.874078 6.662825 -0.364949 23.879913
Spine 19.049451 -0.029915 0.507897
Spine1 6.918229 0.183978 1.816287
Spine2 -22.698992 -0.496837 0.123020
NeckDummy -0.053189 0.400323 0.970019 13.632219 -0.914919 0.516820
Neck 5.622103 -13.458786 43.889358
Head -0.099284 -0.099314 -0.137190 0.279215 -2.046956 -0.328350
LeftShoulderDummy -0.073942 0.413119 0.990055 13.642860 -0.997465 0.658619
LeftShoulder 5.880741 -8.396794 18.171274
LeftArm 11.201275 38.440744 21.238654
LeftForeArm 50.203799
LeftForeArmRoll 17.583340
LeftHand -33.434255 -20.216191 5.537164
LeftHandThumb1 15.569611 3.471646
LeftHandIndex1 -1.637015 40.373154
LeftHandPinky1 0.206440 61.344376
RightShoulderDummy -0.044926 0.390766 0.940677 13.632077 0.902569 -0.480073
RightShoulder 9.351378 3.078075 10.100603
RightArm -0.463301 59.789489 27.478476
RightForeArm 93.990312
RightForeArmRoll 18.679845
RightHand -46.345343 -27.338572 7.830574
RightHandThumb1 16.057538 8.594192
RightHandIndex1 0.938761 39.210935
RightHandPinky1 9.149644 67.504552
LeftUpLeg -4.654406 22.041220 -43.152643
LeftLeg 65.880956
LeftFoot 0.210266 -0.769055 -1.846981 -21.348688 -0.961526 -2.118721
LeftToeBase -7.786368
RightUpLeg -7.312599 15.189408 -30.413447
RightLeg 51.576950
RightFoot -0.521633 0.757845 0.801013 -16.725014 12.380565 -21.704354
RightToeBase -0.200258
68
root -42.409374 -2.802436 41.883271 6.382141 -0.105771 24.007577
Spine 19.389886 -0.136374 0.485526
Spine1 7.046734 0.167793 1.715260
Spine2 -22.599814 -0.555230 0.013531
NeckDummy -0.055581 0.382525 0.957139 13.690479 -0.825645 0.301400
Neck 5.517068 -13.244734 43.810634
Head -0.118769 -0.102803 -0.126764 0.151571 -2.248875 -0.408768
LeftShoulderDummy -0.077891 0.392040 0.975969 13.700502 -0.914376 0.457958
LeftShoulder 5.899855 -8.183146 18.238188
LeftArm 10.978904 38.842781 21.156048
LeftForeArm 49.569468
LeftForeArmRoll 18.682630
LeftHand -33.816728 -21.033927 6.062054
LeftHandThumb1 15.516554 4.085888
LeftHandIndex1 -1.672744 40.563449
LeftHandPinky1 0.145043 61.063898
RightShoulderDummy -0.048188 0.377937 0.929421 13.688660 0.814532 -0.263915
RightShoulder 9.386800 2.879644 10.113235
RightArm 0.293372 59.525870 27.070296
RightForeArm 94.254615
RightForeArmRoll 18.252330
RightHand -46.418282 -27.461643 7.923075
RightHandThumb1 15.824033 8.576845
RightHandIndex1 0.930495 39.210719
RightHandPinky1 9.084817 67.099067
LeftUpLeg -4.647860 22.260901 -43.533033
LeftLeg 66.410188
LeftFoot 0.229885 -0.767245 -1.836530 -21.445873 -1.820744 -2.045708
LeftToeBase -6.768567
RightUpLeg -7.105455 15.473490 -30.319958
RightLeg 51.880858
RightFoot -0.538842 0.748242 0.806341 -17.367161 12.221418 -22.022236
RightToeBase 0.427180
69
root -42.468837 -2.820239 41.877111 6.205547 0.112642 24.075370
Spine 19.610305 -0.209720 0.505398
Spine1 7.139463 0.150934 1.737127
Spine2 -22.466634 -0.551789 -0.165746
NeckDummy -0.054610 0.371061 0.946268 13.651736 -0.664490 0.000684
Neck 5.480213 -12.920425 43.687610
Head -0.138544 -0.112446 -0.114943 0.077380 -2.434710 -0.499902
LeftShoulderDummy -0.078877 0.375869 0.962738 13.660839 -0.760414 0.169010
LeftShoulder 5.899617 -7.980924 18.193848
LeftArm 10.554867 39.218914 20.908426
LeftForeArm 49.016120
LeftForeArmRoll 19.646986
LeftHand -34.137646 -21.841837 6.420314
LeftHandThumb1 16.080960 3.260062
LeftHandIndex1 -1.630814 40.568017
LeftHandPinky1 0.246039 60.634234
RightShoulderDummy -0.048548 0.373408 0.921636 13.647572 0.655209 0.036095
RightShoulder 9.503931 2.661578 10.157049
RightArm 0.814162 59.261025 26.446865
RightForeArm 94.601083
RightForeArmRoll 18.084714
RightHand -46.533658 -27.483174 8.123956
RightHandThumb1 15.543221 8.490932
RightHandIndex1 0.677642 38.826481
RightHandPinky1 8.779140 66.641791
LeftUpLeg -4.609980 22.508161 -43.885157
LeftLeg 66.727284
LeftFoot 0.239121 -0.779793 -1.821642 -21.816662 -2.241419 -2.517472
LeftToeBase -5.742925
RightUpLeg -7.102000 15.683592 -30.324220
RightLeg 52.050137
RightFoot -0.536298 0.745662 0.820953 -16.883003 11.967557 -21.892803
RightToeBase -0.214605
